<?xml version="1.0" ?>
<!-- Uploaded to: SVG Repo, www.svgrepo.com, Generator: SVG Repo Mixer Tools -->
<svg width="800px" height="800px" viewBox="0 0 64 64" enable-background="new 0 0 64 64" id="Filled_Outline_00000081607312705973271110000009714898175699931553_" version="1.1" xml:space="preserve" xmlns="http://www.w3.org/2000/svg" xmlns:xlink="http://www.w3.org/1999/xlink">
<g>
<g>
<path d="M41,17h-0.1c-2.705-1.27-5.714-2-8.9-2s-6.195,0.73-8.9,2H23C10.85,17,1,26.85,1,39v0    c0,12.15,9.85,22,22,22h0.1c2.705,1.27,5.714,2,8.9,2s6.195-0.73,8.9-2H41c12.15,0,22-9.85,22-22v0C63,26.85,53.15,17,41,17z" fill="#FF6D1F"/>
<path d="M21,4L21,4c0,1.657,1.343,3,3,3h0c2.761,0,5,2.239,5,5v3h6v-3c0-6.075-4.925-11-11-11h0    C22.343,1,21,2.343,21,4z" fill="#A69D24"/>
<path d="M25,35h-6c-1.105,0-2-0.895-2-2v0c0-1.105,0.895-2,2-2h6c1.105,0,2,0.895,2,2v0C27,34.105,26.105,35,25,35    z M47,33L47,33c0-1.105-0.895-2-2-2h-6c-1.105,0-2,0.895-2,2v0c0,1.105,0.895,2,2,2h6C46.105,35,47,34.105,47,33z M35,50    c0-1.657-1.343-3-3-3c-1.657,0-3,1.343-3,3s1.343,3,3,3C33.657,53,35,51.657,35,50z" fill="#732002"/>
<path d="M46.963,45.677c-0.221,2.005-1.526,3.763-3.324,4.676c-1.144,0.581-2.239,0.72-3.263,0.614    C35.76,50.8,32.912,48.825,31,45h0.173c1.94,0,3.625-1.154,4.552-2.858C36.742,40.271,38.724,39,41,39    C44.533,39,47.36,42.065,46.963,45.677z" fill="#66EAFF"/>
</g>
<g>
<path d="M25,30h-6c-1.654,0-3,1.346-3,3s1.346,3,3,3h6c1.654,0,3-1.346,3-3S26.654,30,25,30z M25,34h-6    c-0.552,0-1-0.449-1-1s0.448-1,1-1h6c0.552,0,1,0.449,1,1S25.552,34,25,34z" fill="#260A04"/>
<path d="M45,30h-6c-1.654,0-3,1.346-3,3s1.346,3,3,3h6c1.654,0,3-1.346,3-3S46.654,30,45,30z M45,34h-6    c-0.552,0-1-0.449-1-1s0.448-1,1-1h6c0.552,0,1,0.449,1,1S45.552,34,45,34z" fill="#260A04"/>
<path d="M64,39c0-12.63-10.233-22.911-22.843-22.996c-1.623-0.746-3.351-1.3-5.157-1.633V12    c0-6.617-5.383-12-12-12c-2.206,0-4,1.794-4,4s1.794,4,4,4s4,1.794,4,4v2.371c-1.805,0.333-3.534,0.887-5.157,1.633    C10.233,16.089,0,26.37,0,39s10.233,22.911,22.843,22.996C25.633,63.279,28.733,64,32,64s6.367-0.721,9.157-2.004    C53.767,61.911,64,51.63,64,39z M24,6c-1.103,0-2-0.897-2-2s0.897-2,2-2c5.514,0,10,4.486,10,10v2.095    C33.341,14.035,32.675,14,32,14s-1.341,0.035-2,0.095V12C30,8.691,27.309,6,24,6z M45.218,59.574C50.547,55.555,54,49.174,54,42    h-2c0,11.028-8.972,20-20,20s-20-8.972-20-20h-2c0,7.174,3.453,13.555,8.782,17.574C9.218,57.616,2,49.135,2,39    s7.218-18.616,16.782-20.574C13.453,22.445,10,28.826,10,36h2c0-11.028,8.972-20,20-20s20,8.972,20,20h2    c0-7.174-3.453-13.555-8.782-17.574C54.782,20.384,62,28.865,62,39S54.782,57.616,45.218,59.574z" fill="#260A04"/>
<path d="M46.214,40.332C44.886,38.85,42.985,38,41,38c-2.566,0-4.924,1.404-6.154,3.664    C34.051,43.127,32.678,44,31.173,44H31c-0.347,0-0.668,0.179-0.851,0.474s-0.199,0.663-0.044,0.973    c0.147,0.294,0.313,0.553,0.471,0.827C29.074,46.85,28,48.297,28,50c0,2.206,1.794,4,4,4c1.834,0,3.367-1.248,3.837-2.933    c1.309,0.531,2.774,0.836,4.434,0.895C40.514,51.987,40.753,52,40.992,52c1.071,0,2.111-0.252,3.1-0.754    c2.133-1.084,3.614-3.175,3.865-5.458C48.176,43.8,47.54,41.812,46.214,40.332z M32,52c-1.103,0-2-0.897-2-2    c0-1.021,0.772-1.856,1.76-1.976c0.666,0.819,1.408,1.505,2.231,2.063C33.945,51.149,33.073,52,32,52z M45.969,45.568    c-0.178,1.62-1.245,3.112-2.783,3.894c-0.871,0.442-1.756,0.612-2.774,0.506c-3.579-0.13-6.036-1.423-7.8-4.152    c1.649-0.426,3.108-1.571,3.991-3.196C37.482,41.004,39.167,40,41,40c1.418,0,2.775,0.607,3.725,1.667    C45.686,42.74,46.128,44.125,45.969,45.568z" fill="#260A04"/>
</g>
</g>
</svg>